<svg xmlns="http://www.w3.org/2000/svg" width="60" height="60"><g fill="none" fill-rule="evenodd"><path fill="#000" d="m25.43 47.52-.03-3.22c-5.13 1.14-6.22-2.54-6.22-2.54-.84-2.19-2.05-2.77-2.05-2.77-1.67-1.18.13-1.15.13-1.15 1.85.13 2.83 1.95 2.83 1.95 1.64 2.9 4.32 2.06 5.37 1.57a4.09 4.09 0 0 1 1.17-2.53c-4.1-.47-8.4-2.1-8.4-9.35 0-2.07.71-3.76 1.9-5.08-.2-.48-.83-2.4.17-5.01 0 0 1.55-.51 5.08 1.94a17.28 17.28 0 0 1 9.24 0c3.53-2.45 5.08-1.94 5.08-1.94 1 2.6.37 4.53.18 5a7.4 7.4 0 0 1 1.9 5.09c0 7.27-4.32 8.87-8.43 9.34.66.58 1.25 1.74 1.25 3.5l-.02 5.2c0 .5.33 1.1 1.27.9a18.9 18.9 0 0 0 12.61-17.95C48.46 20 40.2 11.54 30 11.54c-10.2 0-18.46 8.47-18.46 18.93a18.9 18.9 0 0 0 12.63 17.96c.92.17 1.26-.41 1.26-.91Z"/></g></svg>